<svg width="282" height="68" viewBox="0 0 282 68" fill="none" xmlns="http://www.w3.org/2000/svg">
<path d="M214.839 34C214.839 29.0312 210.801 25 205.839 25H199.839V43.0283L205.839 43.085C210.773 43.085 214.839 38.9966 214.839 34ZM104.839 46V22C104.839 20.3431 106.182 19 107.839 19C109.496 19 110.839 20.3431 110.839 22V46C110.839 47.6569 109.496 49 107.839 49C106.182 49 104.839 47.6569 104.839 46ZM149.839 28.5C149.839 26.7569 148.155 25 145.839 25H135.839V32H145.839C148.155 32 149.839 30.2431 149.839 28.5ZM275.839 28.5C275.839 26.7569 274.155 25 271.839 25H261.839V32H271.839C274.155 32 275.839 30.2431 275.839 28.5ZM85.8412 19C86.9782 19.0007 88.0167 19.6445 88.5239 20.6621L100.486 44.6621C101.225 46.145 100.622 47.9455 99.1391 48.6846C97.6562 49.4236 95.8547 48.8208 95.1157 47.3379L85.8354 28.7158L76.5229 47.3418C75.7819 48.8237 73.9794 49.4246 72.4975 48.6836C71.0156 47.9426 70.4147 46.1401 71.1557 44.6582L83.1557 20.6582L83.2573 20.4717C83.7947 19.5633 84.7754 18.9993 85.8412 19ZM174.841 19C175.978 19.0007 177.017 19.6445 177.524 20.6621L189.486 44.6621C190.225 46.145 189.622 47.9455 188.139 48.6846C186.656 49.4236 184.855 48.8208 184.116 47.3379L174.835 28.7158L165.523 47.3418C164.782 48.8237 162.979 49.4246 161.497 48.6836C160.016 47.9426 159.415 46.1401 160.156 44.6582L172.156 20.6582L172.257 20.4717C172.795 19.5633 173.775 18.9993 174.841 19ZM236.879 19C238.016 19.0007 239.056 19.6445 239.563 20.6621L251.524 44.6621C252.263 46.145 251.66 47.9455 250.177 48.6846C248.694 49.4236 246.894 48.8207 246.155 47.3379L236.873 28.7158L227.561 47.3418C226.82 48.8237 225.017 49.4246 223.536 48.6836C222.054 47.9426 221.453 46.1401 222.194 44.6582L234.194 20.6582L234.295 20.4717C234.833 19.5633 235.813 18.9993 236.879 19ZM220.839 34C220.839 42.2583 214.139 49.085 205.839 49.085C205.83 49.085 205.82 49.085 205.811 49.085L196.811 49C195.165 48.9844 193.839 47.6458 193.839 46V22C193.839 20.3431 195.182 19 196.839 19H205.839C214.111 19 220.839 25.714 220.839 34ZM155.839 28.5C155.839 32.2908 153.58 35.2872 150.565 36.8379L155.371 44.3896C156.26 45.7874 155.847 47.6418 154.45 48.5312C153.052 49.4205 151.197 49.0081 150.308 47.6104L144.193 38H135.839V46C135.839 47.6569 134.496 49 132.839 49C131.182 49 129.839 47.6569 129.839 46V22C129.839 20.3431 131.182 19 132.839 19H145.839C150.875 19 155.839 22.8793 155.839 28.5ZM281.839 28.5C281.839 32.2908 279.58 35.2872 276.565 36.8379L281.371 44.3896C282.26 45.7874 281.847 47.6418 280.45 48.5312C279.052 49.4205 277.197 49.0081 276.308 47.6104L270.193 38H261.839V46C261.839 47.6569 260.496 49 258.839 49C257.182 49 255.839 47.6569 255.839 46V22C255.839 20.3431 257.182 19 258.839 19H271.839C276.875 19 281.839 22.8793 281.839 28.5Z" fill="#222222"/>
<path d="M26.8393 65V52C26.8393 50.3431 28.1824 49 29.8393 49C31.4961 49 32.8393 50.3431 32.8393 52V65C32.8393 66.6569 31.4961 68 29.8393 68C28.1824 68 26.8393 66.6569 26.8393 65ZM26.8393 16V3C26.8393 1.34315 28.1824 0 29.8393 0C31.4961 0 32.8393 1.34315 32.8393 3V16C32.8393 17.6569 31.4961 19 29.8393 19C28.1824 19 26.8393 17.6569 26.8393 16Z" fill="#6053AF"/>
<path d="M43.9302 22.3976L55.1886 15.8976C56.6235 15.0692 58.4582 15.5608 59.2867 16.9957C60.1151 18.4305 59.6235 20.2653 58.1886 21.0937L46.9302 27.5937C45.4954 28.4222 43.6606 27.9305 42.8322 26.4957C42.0037 25.0608 42.4954 23.226 43.9302 22.3976Z" fill="#6053AF"/>
<path d="M46.9353 40.3976L58.1936 46.8976C59.6285 47.726 60.1201 49.5608 59.2917 50.9957C58.4632 52.4305 56.6285 52.9222 55.1936 52.0937L43.9352 45.5937C42.5004 44.7653 42.0087 42.9305 42.8372 41.4957C43.6656 40.0608 45.5004 39.5692 46.9353 40.3976Z" fill="#6053AF"/>
<path d="M0 49V18C9.24553e-08 16.3431 1.34315 15 3 15C4.65685 15 6 16.3431 6 18V49C6 50.6569 4.65685 52 3 52C1.34315 52 2.38418e-07 50.6569 0 49Z" fill="#56D1B5"/>
<path d="M13.995 42V27C13.995 25.3431 15.3381 24 16.995 24C18.6518 24 19.995 25.3431 19.995 27V42C19.995 43.6569 18.6518 45 16.995 45C15.3381 45 13.995 43.6569 13.995 42Z" fill="#56D1B5"/>
<path d="M32.995 34C32.995 35.6569 31.6518 37 29.995 37C28.3381 37 26.995 35.6569 26.995 34C26.995 32.3431 28.3381 31 29.995 31C31.6518 31 32.995 32.3431 32.995 34Z" fill="#56D1B5"/>
</svg>
