<svg width="287" height="68" viewBox="0 0 287 68" fill="none" xmlns="http://www.w3.org/2000/svg">
<path d="M6.75537 52.6514C4.60305 53.8941 1.8509 53.1567 0.608255 51.0043C-0.634385 48.852 0.103053 46.0999 2.25537 44.8572L21.05 34.0061L2.25066 23.1518C0.0983405 21.9092 -0.638972 19.1565 0.603669 17.0042C1.84639 14.8521 4.59819 14.1151 6.75041 15.3577L32.1818 30.0408C32.8955 30.4233 33.5156 31.0015 33.9502 31.7543C35.1929 33.9066 34.4554 36.6588 32.3031 37.9014L6.75537 52.6514Z" fill="#56D1B5"/>
<path d="M53.3459 52.6514L44.6856 47.6514C42.5333 46.4088 41.7959 43.6566 43.0385 41.5043C44.2812 39.352 47.0333 38.6146 49.1856 39.8572L57.8459 44.8572C59.9982 46.0999 60.7356 48.852 59.493 51.0043C58.2504 53.1566 55.4982 53.8941 53.3459 52.6514Z" fill="#6053AF"/>
<path d="M25.5456 63.5L25.5456 53.5C25.5456 51.0147 27.5603 49 30.0456 49C32.5309 49 34.5456 51.0147 34.5456 53.5L34.5456 63.5C34.5456 65.9853 32.5309 68 30.0456 68C27.5603 68 25.5456 65.9853 25.5456 63.5ZM25.5456 14.5L25.5456 4.5C25.5456 2.01472 27.5603 1.06233e-07 30.0456 2.37277e-07C32.5309 3.68322e-07 34.5456 2.01472 34.5456 4.5L34.5456 14.5C34.5456 16.9853 32.5309 19 30.0456 19C27.5603 19 25.5456 16.9853 25.5456 14.5Z" fill="#6053AF"/>
<path d="M44.6856 20.3486L53.3459 15.3486C55.4982 14.1059 58.2503 14.8434 59.493 16.9957C60.7356 19.148 59.9982 21.9001 57.8459 23.1428L49.1856 28.1428C47.0333 29.3854 44.2811 28.648 43.0385 26.4957C41.7959 24.3434 42.5333 21.5912 44.6856 20.3486Z" fill="#6053AF"/>
<path d="M105.657 46V22C105.657 20.3432 107 19.0001 108.657 19C110.314 19 111.657 20.3431 111.657 22V46C111.657 47.6569 110.314 49 108.657 49C107 48.9999 105.657 47.6568 105.657 46ZM150.919 28.667C150.919 26.6375 149.277 25.0001 147.262 25H136.95V32.333H147.262C149.277 32.3329 150.919 30.6963 150.919 28.667ZM217.479 34C217.479 29.0249 213.453 25 208.498 25H202.179V43H208.498C213.453 43 217.479 38.9751 217.479 34ZM280.046 28.667C280.046 26.6374 278.404 25 276.389 25H266.078V32.333H276.389C278.404 32.333 280.045 30.6964 280.046 28.667ZM86.0261 19C87.1631 19 88.2028 19.6429 88.7107 20.6602L100.691 44.6602C101.431 46.1426 100.83 47.9445 99.3474 48.6846C97.865 49.4245 96.063 48.8222 95.323 47.3398L86.0261 28.7158L76.7302 47.3398C75.9902 48.8222 74.1881 49.4244 72.7058 48.6846C71.2235 47.9446 70.6212 46.1425 71.3611 44.6602L83.3425 20.6602L83.4441 20.4736C83.9808 19.5651 84.9604 19.0001 86.0261 19ZM176.549 19C177.686 19 178.725 19.6429 179.233 20.6602L191.214 44.6602C191.954 46.1426 191.352 47.9445 189.87 48.6846C188.387 49.4246 186.585 48.8222 185.845 47.3398L176.549 28.7158L167.252 47.3398C166.512 48.8221 164.711 49.4243 163.228 48.6846C161.746 47.9446 161.144 46.1425 161.884 44.6602L173.865 20.6602L173.966 20.4736C174.502 19.5648 175.483 19.0001 176.549 19ZM240.447 19C241.584 19 242.623 19.643 243.131 20.6602L255.112 44.6602C255.852 46.1425 255.25 47.9446 253.767 48.6846C252.285 49.4242 250.484 48.8221 249.744 47.3398L240.446 28.7158L231.15 47.3398C230.41 48.8223 228.608 49.4246 227.126 48.6846C225.643 47.9445 225.042 46.1425 225.782 44.6602L237.762 20.6602C238.27 19.6429 239.31 19 240.447 19ZM223.479 34C223.479 42.2798 216.776 49 208.498 49H199.179C197.523 49 196.179 47.6569 196.179 46V22C196.179 20.3431 197.523 19 199.179 19H208.498C216.776 19 223.479 25.7202 223.479 34ZM156.919 28.667C156.919 32.0149 155.216 34.967 152.63 36.7021L156.602 44.6602C157.342 46.1425 156.741 47.9445 155.259 48.6846C153.776 49.4246 151.974 48.8223 151.234 47.3398L146.738 38.333H136.95V46C136.95 47.6569 135.607 49 133.95 49C132.293 48.9999 130.95 47.6568 130.95 46V22C130.95 20.3432 132.293 19.0001 133.95 19H147.262C152.6 19.0001 156.919 23.3328 156.919 28.667ZM286.046 28.667C286.046 32.0147 284.344 34.967 281.758 36.7021L285.73 44.6602C286.47 46.1425 285.868 47.9446 284.385 48.6846C282.903 49.4244 281.101 48.8222 280.361 47.3398L275.866 38.333H266.078V46C266.078 47.6567 264.735 48.9998 263.078 49C261.421 49 260.078 47.6569 260.078 46V22C260.078 20.3431 261.421 19 263.078 19H276.389C281.727 19 286.046 23.3327 286.046 28.667Z" fill="#222222"/>
</svg>
